<?xml version="1.0" standalone="no"?><!DOCTYPE svg PUBLIC "-//W3C//DTD SVG 1.1//EN" "http://www.w3.org/Graphics/SVG/1.1/DTD/svg11.dtd"><svg t="1760531679407" class="icon" viewBox="0 0 1024 1024" version="1.1" xmlns="http://www.w3.org/2000/svg" p-id="4674" xmlns:xlink="http://www.w3.org/1999/xlink" width="200" height="200"><path d="M352 64H64v288h64V128h224V64zM64 672v288h288v-64H128V672H64zM960 352V64H672v64H896v224h64zM672 960h288V672h-64V896H672v64zM815.701333 324.181333L527.701333 164.181333a32 32 0 0 0-32 0L207.701333 324.181333a32 32 0 0 0-15.701333 27.818667v320a32 32 0 0 0 16.298667 27.818667l288 160a32 32 0 0 0 32 0l288-160a32 32 0 0 0 15.701333-27.818667v-320a32 32 0 0 0-16.298667-27.818667zM512 228.522667l222.122667 123.477333L512 475.562667 289.962667 352 512 228.522667zM256 406.442667L480 530.773333v246.784L256 653.056v-246.613333z m288 371.2V530.773333L768 406.442667v246.613333l-224 124.586667z" p-id="4675"></path></svg>